<?xml version="1.0" encoding="UTF-8"?>
<svg width="23px" height="16px" viewBox="0 0 23 16" version="1.1" xmlns="http://www.w3.org/2000/svg" xmlns:xlink="http://www.w3.org/1999/xlink">
    <!-- Generator: Sketch 49.2 (51160) - http://www.bohemiancoding.com/sketch -->
    <title>Fill 1</title>
    <desc>Created with Sketch.</desc>
    <defs></defs>
    <g id="The-Frontlash" stroke="none" stroke-width="1" fill="none" fill-rule="evenodd">
        <g id="Desktop_Terms&amp;Conditions" transform="translate(-903.000000, -30.000000)" fill="#9C5D45">
            <g id="Header">
                <g id="Social" transform="translate(843.000000, 30.000000)">
                    <g id="Page-1" transform="translate(60.000000, 0.000000)">
                        <path d="M9.31668817,4.43491613 L9.31668817,11.5296258 C11.26,10.3350452 13.1474839,9.17487312 15.087957,7.98209893 C13.1375054,6.78330323 11.2554409,5.62648602 9.31668817,4.43491613 M12.1292473,15.9877763 C12.0086452,15.9884645 11.888129,15.9887226 11.7676129,15.9884645 C9.35944086,15.9837333 6.94025806,15.8519484 4.53380645,15.7467441 C3.89458065,15.7187871 3.23969892,15.6510022 2.62791398,15.4760344 C1.31926882,15.1017548 0.496989247,14.2300129 0.29716129,12.850486 C-0.0740215054,10.2879054 -0.0442580645,7.71233548 0.0997419355,5.13685161 C0.141032258,4.39698065 0.270064516,3.66227097 0.351268817,2.92429247 C0.503526882,1.54123871 1.82309677,0.527733334 3.15058065,0.372292474 C8.16021505,-0.21420215 13.2304946,0.0196903233 18.2568172,0.217023657 C18.8974194,0.242141936 19.5415484,0.321539786 20.1717419,0.441109678 C21.5857634,0.709324732 22.3950538,1.56979785 22.6433978,2.98665807 C22.976129,4.88429247 23.0610323,6.80076559 22.9895484,8.71818495 C22.9363871,10.1444215 22.8166452,11.5728086 22.6316989,12.9878624 C22.4421075,14.438443 21.3356989,15.4762065 19.8532043,15.5791742 C17.2814194,15.7578409 14.7085161,15.9734968 12.1292473,15.9877763" id="Fill-1"></path>
                    </g>
                </g>
            </g>
        </g>
    </g>
</svg>