<?xml version="1.0" encoding="UTF-8"?>
<svg width="27px" height="20px" viewBox="0 0 17 16" version="1.1" xmlns="http://www.w3.org/2000/svg" xmlns:xlink="http://www.w3.org/1999/xlink">
    <!-- Generator: Sketch 49.2 (51160) - http://www.bohemiancoding.com/sketch -->
    <title>Fill 23</title>
    <desc>Created with Sketch.</desc>
    <defs></defs>
    <g id="The-Frontlash" stroke="none" stroke-width="1" fill="none" fill-rule="evenodd">
        <g id="Desktop_Homepage-1400-Copy" transform="translate(-1227.000000, -30.000000)" fill="#F7522F">
            <g id="Header">
                <g id="Social" transform="translate(1227.000000, 30.000000)">
                    <path d="M14.040404,14.5 L2.00577201,14.5 C1.72897547,14.5 1.504329,14.276 1.504329,14 L1.504329,6.5 L3.51010101,6.5 C3.24884921,6.875 3.16059524,7.5745 3.16059524,8.0185 C3.16059524,10.696 5.35039683,12.8745 8.04164141,12.8745 C10.7333874,12.8745 12.923189,10.696 12.923189,8.0185 C12.923189,7.5745 12.8600072,6.8855 12.536075,6.5 L14.541847,6.5 L14.541847,14 C14.541847,14.276 14.3172006,14.5 14.040404,14.5 M8.04164141,4.949 C9.74604618,4.949 11.1275216,6.3235 11.1275216,8.0185 C11.1275216,9.714 9.74604618,11.0885 8.04164141,11.0885 C6.3377381,11.0885 4.95626263,9.714 4.95626263,8.0185 C4.95626263,6.3235 6.3377381,4.949 8.04164141,4.949 M12.034632,2 L13.538961,2 C13.8157576,2 14.040404,2.224 14.040404,2.5 L14.040404,4 C14.040404,4.276 13.8157576,4.5 13.538961,4.5 L12.034632,4.5 C11.7578355,4.5 11.533189,4.276 11.533189,4 L11.533189,2.5 C11.533189,2.224 11.7578355,2 12.034632,2 M14.1386869,0 L1.90748918,0 C0.853957431,0 0,0.8495 0,1.8975 L0,14.1025 C0,15.1505 0.853957431,16 1.90748918,16 L14.1386869,16 C15.1922186,16 16.046176,15.1505 16.046176,14.1025 L16.046176,1.8975 C16.046176,0.8495 15.1922186,0 14.1386869,0" id="Fill-23"></path>
                </g>
            </g>
        </g>
    </g>
</svg>