<?xml version="1.0" encoding="UTF-8"?>
<svg width="18px" height="18px" viewBox="0 0 18 18" version="1.1" xmlns="http://www.w3.org/2000/svg" xmlns:xlink="http://www.w3.org/1999/xlink">
    <!-- Generator: Sketch 49.2 (51160) - http://www.bohemiancoding.com/sketch -->
    <title>search</title>
    <desc>Created with Sketch.</desc>
    <defs></defs>
    <g id="The-Frontlash" stroke="none" stroke-width="1" fill="none" fill-rule="evenodd">
        <g id="Desktop_Homepage-1400-Copy" transform="translate(-1332.000000, -204.000000)" fill="#F7522F" stroke="#F7522F">
            <g id="Header">
                <path d="M1340.83393,216.614341 L1340.83393,223.667262 L1342.5006,223.667262 L1342.5006,216.614341 C1345.69688,216.205287 1348.16726,213.474769 1348.16726,210.167262 C1348.16726,206.577411 1345.25711,203.667262 1341.66726,203.667262 C1338.07741,203.667262 1335.16726,206.577411 1335.16726,210.167262 C1335.16726,213.474769 1337.63764,216.205287 1340.83393,216.614341 L1340.83393,216.614341 L1340.83393,216.614341 Z M1341.66726,216.000595 C1344.88892,216.000595 1347.5006,213.388923 1347.5006,210.167262 C1347.5006,206.945601 1344.88892,204.333929 1341.66726,204.333929 C1338.4456,204.333929 1335.83393,206.945601 1335.83393,210.167262 C1335.83393,213.388923 1338.4456,216.000595 1341.66726,216.000595 L1341.66726,216.000595 Z" id="search" transform="translate(1341.667262, 213.667262) rotate(-45.000000) translate(-1341.667262, -213.667262) "></path>
            </g>
        </g>
    </g>
</svg>