<?xml version="1.0" encoding="UTF-8"?>
<svg width="27px" height="20px" viewBox="0 0 17 16" version="1.1" xmlns="http://www.w3.org/2000/svg" xmlns:xlink="http://www.w3.org/1999/xlink">
    <!-- Generator: Sketch 49.2 (51160) - http://www.bohemiancoding.com/sketch -->
    <title>Fill 3</title>
    <desc>Created with Sketch.</desc>
    <defs></defs>
    <g id="The-Frontlash" stroke="none" stroke-width="1" fill="none" fill-rule="evenodd">
        <g id="Desktop_Cash" transform="translate(-876.000000, -30.000000)" fill="#FAA900">
            <g id="Header">
                <g id="Social" transform="translate(843.000000, 30.000000)">
                    <path d="M49.1555303,0 L34.4467027,0 C34.0771392,0 33.7777778,0.2985 33.7777778,0.6665 L33.7777778,15.3335 C33.7777778,15.7015 34.0771392,16 34.4467027,16 L42.3023088,16 L42.3023088,10 L40.2965368,10 L40.2965368,7.5 L42.3023088,7.5 L42.3023088,5.5 C42.3023088,3.4335 43.6145851,2.4165 45.4634055,2.4165 C46.3489538,2.4165 47.1101443,2.4825 47.3317821,2.5115 L47.3317821,4.6715 L46.0495924,4.672 C45.0441991,4.672 44.8095238,5.1485 44.8095238,5.8475 L44.8095238,7.5 L47.3167388,7.5 L46.8152958,10 L44.8095238,10 L44.8496392,16 L49.1555303,16 C49.5245924,16 49.8239538,15.7015 49.8239538,15.3335 L49.8239538,0.6665 C49.8239538,0.2985 49.5245924,0 49.1555303,0" id="Fill-3"></path>
                </g>
            </g>
        </g>
    </g>
</svg>