<?xml version="1.0" encoding="UTF-8"?>
<svg width="18px" height="18px" viewBox="0 0 18 18" version="1.1" xmlns="http://www.w3.org/2000/svg" xmlns:xlink="http://www.w3.org/1999/xlink">
    <!-- Generator: Sketch 49.2 (51160) - http://www.bohemiancoding.com/sketch -->
    <title>search</title>
    <desc>Created with Sketch.</desc>
    <defs></defs>
    <g id="The-Frontlash" stroke="none" stroke-width="1" fill="none" fill-rule="evenodd">
        <g id="Desktop_Cash" transform="translate(-945.000000, -204.000000)" fill="#FAA900" stroke="#FAA900">
            <g id="Header">
                <path d="M953.666667,216.614341 L953.666667,223.667262 L955.333333,223.667262 L955.333333,216.614341 C958.529619,216.205287 961,213.474769 961,210.167262 C961,206.577411 958.089851,203.667262 954.5,203.667262 C950.910149,203.667262 948,206.577411 948,210.167262 C948,213.474769 950.470381,216.205287 953.666667,216.614341 L953.666667,216.614341 L953.666667,216.614341 Z M954.5,216.000595 C957.721661,216.000595 960.333333,213.388923 960.333333,210.167262 C960.333333,206.945601 957.721661,204.333929 954.5,204.333929 C951.278339,204.333929 948.666667,206.945601 948.666667,210.167262 C948.666667,213.388923 951.278339,216.000595 954.5,216.000595 L954.5,216.000595 Z" id="search" transform="translate(954.500000, 213.667262) rotate(-45.000000) translate(-954.500000, -213.667262) "></path>
            </g>
        </g>
    </g>
</svg>